<?xml version="1.0" encoding="UTF-8" standalone="no"?>
<!-- Created with PhysiCell (http://PhysiCell.MathCancer.org/) -->
<svg 
 xmlns:dc="http://purl.org/dc/elements/1.1/" 
 xmlns:cc="http://creativecommons.org/ns#" 
 xmlns:rdf="http://www.w3.org/1999/02/22-rdf-syntax-ns#" 
 xmlns:svg="http://www.w3.org/2000/svg" 
 xmlns="http://www.w3.org/2000/svg" 
 version="1.1" 
 width="1000" 
 height="1070" 
 id="svg2">
  <rect x="0" y="0" width="1000" height="1070" stroke-width="2" stroke="white" fill="white"/>
  <text x="12.5" y="30"
   font-family="Arial" font-size="25" fill="black" >
   Current time: 0 days, 0 hours, and 0.00 minutes, z = 0.00 &#956;m
  </text>
  <text x="12.5" y="57.5"
   font-family="Arial" font-size="23.75" fill="black" >
   50 agents
  </text>
 <g id="tissue" 
    transform="translate(0,1070) scale(1,-1)">
  <g id="ECM">
  </g>
  <g id="cells">
   <g id="cell0">
  <circle cx="500" cy="500" r="8.41271" stroke-width="0.5" stroke="rgb(0,0,0)" fill="rgb(0,0,0)"/>
  <circle cx="500" cy="500" r="5.05167" stroke-width="0.5" stroke="rgb(0,0,0)" fill="rgb(0,0,0)"/>
   </g>
   <g id="cell1">
  <circle cx="501" cy="501" r="8.41271" stroke-width="0.5" stroke="rgb(0,0,0)" fill="rgb(0,0,0)"/>
  <circle cx="501" cy="501" r="5.05167" stroke-width="0.5" stroke="rgb(0,0,0)" fill="rgb(0,0,0)"/>
   </g>
   <g id="cell2">
  <circle cx="502" cy="502" r="8.41271" stroke-width="0.5" stroke="rgb(0,0,0)" fill="rgb(0,0,0)"/>
  <circle cx="502" cy="502" r="5.05167" stroke-width="0.5" stroke="rgb(0,0,0)" fill="rgb(0,0,0)"/>
   </g>
   <g id="cell3">
  <circle cx="503" cy="503" r="8.41271" stroke-width="0.5" stroke="rgb(0,0,0)" fill="rgb(0,0,0)"/>
  <circle cx="503" cy="503" r="5.05167" stroke-width="0.5" stroke="rgb(0,0,0)" fill="rgb(0,0,0)"/>
   </g>
   <g id="cell4">
  <circle cx="504" cy="504" r="8.41271" stroke-width="0.5" stroke="rgb(0,0,0)" fill="rgb(0,0,0)"/>
  <circle cx="504" cy="504" r="5.05167" stroke-width="0.5" stroke="rgb(0,0,0)" fill="rgb(0,0,0)"/>
   </g>
   <g id="cell5">
  <circle cx="505" cy="505" r="8.41271" stroke-width="0.5" stroke="rgb(0,0,0)" fill="rgb(0,0,0)"/>
  <circle cx="505" cy="505" r="5.05167" stroke-width="0.5" stroke="rgb(0,0,0)" fill="rgb(0,0,0)"/>
   </g>
   <g id="cell6">
  <circle cx="506" cy="506" r="8.41271" stroke-width="0.5" stroke="rgb(0,0,0)" fill="rgb(0,0,0)"/>
  <circle cx="506" cy="506" r="5.05167" stroke-width="0.5" stroke="rgb(0,0,0)" fill="rgb(0,0,0)"/>
   </g>
   <g id="cell7">
  <circle cx="507" cy="507" r="8.41271" stroke-width="0.5" stroke="rgb(0,0,0)" fill="rgb(0,0,0)"/>
  <circle cx="507" cy="507" r="5.05167" stroke-width="0.5" stroke="rgb(0,0,0)" fill="rgb(0,0,0)"/>
   </g>
   <g id="cell8">
  <circle cx="508" cy="508" r="8.41271" stroke-width="0.5" stroke="rgb(0,0,0)" fill="rgb(0,0,0)"/>
  <circle cx="508" cy="508" r="5.05167" stroke-width="0.5" stroke="rgb(0,0,0)" fill="rgb(0,0,0)"/>
   </g>
   <g id="cell9">
  <circle cx="509" cy="509" r="8.41271" stroke-width="0.5" stroke="rgb(0,0,0)" fill="rgb(0,0,0)"/>
  <circle cx="509" cy="509" r="5.05167" stroke-width="0.5" stroke="rgb(0,0,0)" fill="rgb(0,0,0)"/>
   </g>
   <g id="cell10">
  <circle cx="510" cy="510" r="8.41271" stroke-width="0.5" stroke="rgb(0,0,0)" fill="rgb(0,0,0)"/>
  <circle cx="510" cy="510" r="5.05167" stroke-width="0.5" stroke="rgb(0,0,0)" fill="rgb(0,0,0)"/>
   </g>
   <g id="cell11">
  <circle cx="511" cy="511" r="8.41271" stroke-width="0.5" stroke="rgb(0,0,0)" fill="rgb(0,0,0)"/>
  <circle cx="511" cy="511" r="5.05167" stroke-width="0.5" stroke="rgb(0,0,0)" fill="rgb(0,0,0)"/>
   </g>
   <g id="cell12">
  <circle cx="512" cy="512" r="8.41271" stroke-width="0.5" stroke="rgb(0,0,0)" fill="rgb(0,0,0)"/>
  <circle cx="512" cy="512" r="5.05167" stroke-width="0.5" stroke="rgb(0,0,0)" fill="rgb(0,0,0)"/>
   </g>
   <g id="cell13">
  <circle cx="513" cy="513" r="8.41271" stroke-width="0.5" stroke="rgb(0,0,0)" fill="rgb(0,0,0)"/>
  <circle cx="513" cy="513" r="5.05167" stroke-width="0.5" stroke="rgb(0,0,0)" fill="rgb(0,0,0)"/>
   </g>
   <g id="cell14">
  <circle cx="514" cy="514" r="8.41271" stroke-width="0.5" stroke="rgb(0,0,0)" fill="rgb(0,0,0)"/>
  <circle cx="514" cy="514" r="5.05167" stroke-width="0.5" stroke="rgb(0,0,0)" fill="rgb(0,0,0)"/>
   </g>
   <g id="cell15">
  <circle cx="515" cy="515" r="8.41271" stroke-width="0.5" stroke="rgb(0,0,0)" fill="rgb(0,0,0)"/>
  <circle cx="515" cy="515" r="5.05167" stroke-width="0.5" stroke="rgb(0,0,0)" fill="rgb(0,0,0)"/>
   </g>
   <g id="cell16">
  <circle cx="516" cy="516" r="8.41271" stroke-width="0.5" stroke="rgb(0,0,0)" fill="rgb(0,0,0)"/>
  <circle cx="516" cy="516" r="5.05167" stroke-width="0.5" stroke="rgb(0,0,0)" fill="rgb(0,0,0)"/>
   </g>
   <g id="cell17">
  <circle cx="517" cy="517" r="8.41271" stroke-width="0.5" stroke="rgb(0,0,0)" fill="rgb(0,0,0)"/>
  <circle cx="517" cy="517" r="5.05167" stroke-width="0.5" stroke="rgb(0,0,0)" fill="rgb(0,0,0)"/>
   </g>
   <g id="cell18">
  <circle cx="518" cy="518" r="8.41271" stroke-width="0.5" stroke="rgb(0,0,0)" fill="rgb(0,0,0)"/>
  <circle cx="518" cy="518" r="5.05167" stroke-width="0.5" stroke="rgb(0,0,0)" fill="rgb(0,0,0)"/>
   </g>
   <g id="cell19">
  <circle cx="519" cy="519" r="8.41271" stroke-width="0.5" stroke="rgb(0,0,0)" fill="rgb(0,0,0)"/>
  <circle cx="519" cy="519" r="5.05167" stroke-width="0.5" stroke="rgb(0,0,0)" fill="rgb(0,0,0)"/>
   </g>
   <g id="cell20">
  <circle cx="520" cy="520" r="8.41271" stroke-width="0.5" stroke="rgb(0,0,0)" fill="rgb(0,0,0)"/>
  <circle cx="520" cy="520" r="5.05167" stroke-width="0.5" stroke="rgb(0,0,0)" fill="rgb(0,0,0)"/>
   </g>
   <g id="cell21">
  <circle cx="521" cy="521" r="8.41271" stroke-width="0.5" stroke="rgb(0,0,0)" fill="rgb(0,0,0)"/>
  <circle cx="521" cy="521" r="5.05167" stroke-width="0.5" stroke="rgb(0,0,0)" fill="rgb(0,0,0)"/>
   </g>
   <g id="cell22">
  <circle cx="522" cy="522" r="8.41271" stroke-width="0.5" stroke="rgb(0,0,0)" fill="rgb(0,0,0)"/>
  <circle cx="522" cy="522" r="5.05167" stroke-width="0.5" stroke="rgb(0,0,0)" fill="rgb(0,0,0)"/>
   </g>
   <g id="cell23">
  <circle cx="523" cy="523" r="8.41271" stroke-width="0.5" stroke="rgb(0,0,0)" fill="rgb(0,0,0)"/>
  <circle cx="523" cy="523" r="5.05167" stroke-width="0.5" stroke="rgb(0,0,0)" fill="rgb(0,0,0)"/>
   </g>
   <g id="cell24">
  <circle cx="524" cy="524" r="8.41271" stroke-width="0.5" stroke="rgb(0,0,0)" fill="rgb(0,0,0)"/>
  <circle cx="524" cy="524" r="5.05167" stroke-width="0.5" stroke="rgb(0,0,0)" fill="rgb(0,0,0)"/>
   </g>
   <g id="cell25">
  <circle cx="525" cy="525" r="8.41271" stroke-width="0.5" stroke="rgb(0,0,0)" fill="rgb(0,0,0)"/>
  <circle cx="525" cy="525" r="5.05167" stroke-width="0.5" stroke="rgb(0,0,0)" fill="rgb(0,0,0)"/>
   </g>
   <g id="cell26">
  <circle cx="526" cy="526" r="8.41271" stroke-width="0.5" stroke="rgb(0,0,0)" fill="rgb(0,0,0)"/>
  <circle cx="526" cy="526" r="5.05167" stroke-width="0.5" stroke="rgb(0,0,0)" fill="rgb(0,0,0)"/>
   </g>
   <g id="cell27">
  <circle cx="527" cy="527" r="8.41271" stroke-width="0.5" stroke="rgb(0,0,0)" fill="rgb(0,0,0)"/>
  <circle cx="527" cy="527" r="5.05167" stroke-width="0.5" stroke="rgb(0,0,0)" fill="rgb(0,0,0)"/>
   </g>
   <g id="cell28">
  <circle cx="528" cy="528" r="8.41271" stroke-width="0.5" stroke="rgb(0,0,0)" fill="rgb(0,0,0)"/>
  <circle cx="528" cy="528" r="5.05167" stroke-width="0.5" stroke="rgb(0,0,0)" fill="rgb(0,0,0)"/>
   </g>
   <g id="cell29">
  <circle cx="529" cy="529" r="8.41271" stroke-width="0.5" stroke="rgb(0,0,0)" fill="rgb(0,0,0)"/>
  <circle cx="529" cy="529" r="5.05167" stroke-width="0.5" stroke="rgb(0,0,0)" fill="rgb(0,0,0)"/>
   </g>
   <g id="cell30">
  <circle cx="530" cy="530" r="8.41271" stroke-width="0.5" stroke="rgb(0,0,0)" fill="rgb(0,0,0)"/>
  <circle cx="530" cy="530" r="5.05167" stroke-width="0.5" stroke="rgb(0,0,0)" fill="rgb(0,0,0)"/>
   </g>
   <g id="cell31">
  <circle cx="531" cy="531" r="8.41271" stroke-width="0.5" stroke="rgb(0,0,0)" fill="rgb(0,0,0)"/>
  <circle cx="531" cy="531" r="5.05167" stroke-width="0.5" stroke="rgb(0,0,0)" fill="rgb(0,0,0)"/>
   </g>
   <g id="cell32">
  <circle cx="532" cy="532" r="8.41271" stroke-width="0.5" stroke="rgb(0,0,0)" fill="rgb(0,0,0)"/>
  <circle cx="532" cy="532" r="5.05167" stroke-width="0.5" stroke="rgb(0,0,0)" fill="rgb(0,0,0)"/>
   </g>
   <g id="cell33">
  <circle cx="533" cy="533" r="8.41271" stroke-width="0.5" stroke="rgb(0,0,0)" fill="rgb(0,0,0)"/>
  <circle cx="533" cy="533" r="5.05167" stroke-width="0.5" stroke="rgb(0,0,0)" fill="rgb(0,0,0)"/>
   </g>
   <g id="cell34">
  <circle cx="534" cy="534" r="8.41271" stroke-width="0.5" stroke="rgb(0,0,0)" fill="rgb(0,0,0)"/>
  <circle cx="534" cy="534" r="5.05167" stroke-width="0.5" stroke="rgb(0,0,0)" fill="rgb(0,0,0)"/>
   </g>
   <g id="cell35">
  <circle cx="535" cy="535" r="8.41271" stroke-width="0.5" stroke="rgb(0,0,0)" fill="rgb(0,0,0)"/>
  <circle cx="535" cy="535" r="5.05167" stroke-width="0.5" stroke="rgb(0,0,0)" fill="rgb(0,0,0)"/>
   </g>
   <g id="cell36">
  <circle cx="536" cy="536" r="8.41271" stroke-width="0.5" stroke="rgb(0,0,0)" fill="rgb(0,0,0)"/>
  <circle cx="536" cy="536" r="5.05167" stroke-width="0.5" stroke="rgb(0,0,0)" fill="rgb(0,0,0)"/>
   </g>
   <g id="cell37">
  <circle cx="537" cy="537" r="8.41271" stroke-width="0.5" stroke="rgb(0,0,0)" fill="rgb(0,0,0)"/>
  <circle cx="537" cy="537" r="5.05167" stroke-width="0.5" stroke="rgb(0,0,0)" fill="rgb(0,0,0)"/>
   </g>
   <g id="cell38">
  <circle cx="538" cy="538" r="8.41271" stroke-width="0.5" stroke="rgb(0,0,0)" fill="rgb(0,0,0)"/>
  <circle cx="538" cy="538" r="5.05167" stroke-width="0.5" stroke="rgb(0,0,0)" fill="rgb(0,0,0)"/>
   </g>
   <g id="cell39">
  <circle cx="539" cy="539" r="8.41271" stroke-width="0.5" stroke="rgb(0,0,0)" fill="rgb(0,0,0)"/>
  <circle cx="539" cy="539" r="5.05167" stroke-width="0.5" stroke="rgb(0,0,0)" fill="rgb(0,0,0)"/>
   </g>
   <g id="cell40">
  <circle cx="540" cy="540" r="8.41271" stroke-width="0.5" stroke="rgb(0,0,0)" fill="rgb(0,0,0)"/>
  <circle cx="540" cy="540" r="5.05167" stroke-width="0.5" stroke="rgb(0,0,0)" fill="rgb(0,0,0)"/>
   </g>
   <g id="cell41">
  <circle cx="541" cy="541" r="8.41271" stroke-width="0.5" stroke="rgb(0,0,0)" fill="rgb(0,0,0)"/>
  <circle cx="541" cy="541" r="5.05167" stroke-width="0.5" stroke="rgb(0,0,0)" fill="rgb(0,0,0)"/>
   </g>
   <g id="cell42">
  <circle cx="542" cy="542" r="8.41271" stroke-width="0.5" stroke="rgb(0,0,0)" fill="rgb(0,0,0)"/>
  <circle cx="542" cy="542" r="5.05167" stroke-width="0.5" stroke="rgb(0,0,0)" fill="rgb(0,0,0)"/>
   </g>
   <g id="cell43">
  <circle cx="543" cy="543" r="8.41271" stroke-width="0.5" stroke="rgb(0,0,0)" fill="rgb(0,0,0)"/>
  <circle cx="543" cy="543" r="5.05167" stroke-width="0.5" stroke="rgb(0,0,0)" fill="rgb(0,0,0)"/>
   </g>
   <g id="cell44">
  <circle cx="544" cy="544" r="8.41271" stroke-width="0.5" stroke="rgb(0,0,0)" fill="rgb(0,0,0)"/>
  <circle cx="544" cy="544" r="5.05167" stroke-width="0.5" stroke="rgb(0,0,0)" fill="rgb(0,0,0)"/>
   </g>
   <g id="cell45">
  <circle cx="545" cy="545" r="8.41271" stroke-width="0.5" stroke="rgb(0,0,0)" fill="rgb(0,0,0)"/>
  <circle cx="545" cy="545" r="5.05167" stroke-width="0.5" stroke="rgb(0,0,0)" fill="rgb(0,0,0)"/>
   </g>
   <g id="cell46">
  <circle cx="546" cy="546" r="8.41271" stroke-width="0.5" stroke="rgb(0,0,0)" fill="rgb(0,0,0)"/>
  <circle cx="546" cy="546" r="5.05167" stroke-width="0.5" stroke="rgb(0,0,0)" fill="rgb(0,0,0)"/>
   </g>
   <g id="cell47">
  <circle cx="547" cy="547" r="8.41271" stroke-width="0.5" stroke="rgb(0,0,0)" fill="rgb(0,0,0)"/>
  <circle cx="547" cy="547" r="5.05167" stroke-width="0.5" stroke="rgb(0,0,0)" fill="rgb(0,0,0)"/>
   </g>
   <g id="cell48">
  <circle cx="548" cy="548" r="8.41271" stroke-width="0.5" stroke="rgb(0,0,0)" fill="rgb(0,0,0)"/>
  <circle cx="548" cy="548" r="5.05167" stroke-width="0.5" stroke="rgb(0,0,0)" fill="rgb(0,0,0)"/>
   </g>
   <g id="cell49">
  <circle cx="549" cy="549" r="8.41271" stroke-width="0.5" stroke="rgb(0,0,0)" fill="rgb(0,0,0)"/>
  <circle cx="549" cy="549" r="5.05167" stroke-width="0.5" stroke="rgb(0,0,0)" fill="rgb(0,0,0)"/>
   </g>
  </g>
 </g>
  <rect x="775" y="1035" width="200" height="10" stroke-width="2" stroke="rgb(255,255,255)" fill="rgb(0,0,0)"/>
  <text x="781.25" y="1028.75"
   font-family="Arial" font-size="25" fill="black" >
   200 &#956;m
  </text>
  <text x="25" y="1045"
   font-family="Arial" font-size="18.75" fill="black" >
   0 days, 0 hours, 0 minutes, and 0.0584 seconds
  </text>
  <rect x="0" y="70" width="1000" height="1000" stroke-width="2" stroke="rgb(0,0,0)" fill="none"/>
</svg>
